# xmcd
#
# Track frame offsets:
#	150
#	16712
#	39036
#	53924
#	67875
#	86034
#	104822
#	121613
#	134308
#	153362
#	171007
#	184073
#	208729
#
# Disc length: 2959 seconds
# Revision: 0
# Processed by: cddbd v1.5.2PL0 Copyright (c) Steve Scherf et al.
# Submitted via: dBpowerAMP V12.0
#
DISCID=a20b8d0d
DTITLE=Jim Gaudet and The Railroad Boys - Reasons That I Run
DYEAR=2013
DGENRE=Country
TTITLE0=You Don't Know What I Know
TTITLE1=Reasons That I Run
TTITLE2=In Some Other's Arms
TTITLE3=I Ain't Getting Up
TTITLE4=Johnny was an Outlaw
TTITLE5=Hartford Street
TTITLE6=Darkside of Lonesome
TTITLE7=Peanut Butter
TTITLE8=Railroad Boys
TTITLE9=Justify My Soul
TTITLE10=Help Me
TTITLE11=Raylene
TTITLE12=Walk of Life
EXTD=
EXTT0=
EXTT1=
EXTT2=
EXTT3=
EXTT4=
EXTT5=
EXTT6=
EXTT7=
EXTT8=
EXTT9=
EXTT10=
EXTT11=
EXTT12=
PLAYORDER=
